<?xml version="1.0" encoding="utf-8"?>
<!-- Generator: Adobe Illustrator 27.5.0, SVG Export Plug-In . SVG Version: 6.00 Build 0)  -->
<svg version="1.1" id="Capa_1" xmlns="http://www.w3.org/2000/svg" xmlns:xlink="http://www.w3.org/1999/xlink" x="0px" y="0px"
	 viewBox="0 0 2122 2122" style="enable-background:new 0 0 2122 2122;" xml:space="preserve">
<g>
	<path style="fill:#EA5B0C;" d="M1955.259,1503.606l1.148-123.632l0.076-8.187l0.42-45.182l0.288-30.992l11.993-3.35v-26.208
		l-257.703-67.458c41.397-14.756,70.765-25.223,79.571-28.362c86.522-40.599,95.366-262.053,0-289.104h0l-88.834-17.913l0,0
		l-85.574-17.255l11-2.235l16.324-3.317c0,0,0,0,0,0l64.141-13.033c0.836-0.176,1.693-0.371,2.565-0.585
		c0.313-0.077,0.64-0.17,0.957-0.253c0.567-0.146,1.131-0.29,1.712-0.453c0.385-0.109,0.781-0.236,1.171-0.353
		c0.527-0.157,1.051-0.309,1.588-0.482c0.43-0.139,0.87-0.296,1.305-0.444c0.508-0.173,1.012-0.339,1.526-0.525
		c0.462-0.168,0.932-0.356,1.399-0.535c0.5-0.192,0.997-0.378,1.502-0.583c0.487-0.198,0.981-0.417,1.473-0.628
		c0.489-0.211,0.977-0.415,1.47-0.639c0.516-0.234,1.035-0.488,1.554-0.737c0.478-0.229,0.953-0.453,1.433-0.694
		c0.529-0.266,1.059-0.553,1.589-0.835c0.475-0.253,0.949-0.5,1.425-0.766c0.544-0.303,1.089-0.627,1.634-0.948
		c0.463-0.274,0.926-0.542,1.391-0.829c0.556-0.343,1.112-0.706,1.668-1.069c0.454-0.295,0.908-0.588,1.361-0.896
		c0.559-0.379,1.115-0.779,1.672-1.179c0.452-0.324,0.903-0.646,1.353-0.984c0.561-0.421,1.119-0.86,1.676-1.301
		c0.44-0.349,0.879-0.696,1.317-1.059c0.563-0.465,1.122-0.949,1.681-1.437c0.427-0.373,0.854-0.748,1.278-1.134
		c0.562-0.512,1.119-1.042,1.674-1.579c0.414-0.398,0.826-0.799,1.236-1.212c0.558-0.561,1.11-1.139,1.661-1.726
		c0.399-0.424,0.795-0.853,1.19-1.291c0.55-0.612,1.094-1.238,1.635-1.876c0.385-0.453,0.766-0.912,1.146-1.378
		c0.538-0.662,1.071-1.339,1.599-2.031c0.368-0.481,0.732-0.969,1.095-1.465c0.526-0.719,1.046-1.452,1.56-2.201
		c0.347-0.505,0.69-1.019,1.031-1.539c0.511-0.778,1.016-1.57,1.514-2.379c0.33-0.537,0.655-1.086,0.978-1.637
		c0.488-0.831,0.97-1.673,1.443-2.537c0.312-0.571,0.618-1.154,0.923-1.741c0.466-0.893,0.927-1.797,1.376-2.724
		c0.289-0.597,0.57-1.211,0.853-1.824c0.442-0.957,0.878-1.923,1.3-2.917c0.266-0.625,0.521-1.267,0.779-1.906
		c0.416-1.03,0.827-2.067,1.222-3.134c0.24-0.65,0.469-1.319,0.701-1.982c0.385-1.102,0.767-2.209,1.13-3.35
		c0.215-0.676,0.416-1.375,0.622-2.065c0.352-1.177,0.702-2.357,1.028-3.576c0.188-0.699,0.36-1.424,0.539-2.137
		c0.316-1.26,0.631-2.522,0.92-3.826c0.158-0.715,0.299-1.456,0.449-2.184c0.278-1.349,0.555-2.701,0.803-4.097
		c0.129-0.728,0.24-1.485,0.36-2.225c0.236-1.448,0.473-2.896,0.676-4.392c0.099-0.725,0.176-1.479,0.266-2.216
		c0.192-1.564,0.384-3.128,0.539-4.745c0.067-0.699,0.113-1.429,0.173-2.138c0.144-1.702,0.288-3.406,0.391-5.167
		c0.037-0.637,0.052-1.305,0.084-1.95c0.092-1.882,0.181-3.769,0.224-5.719c0.011-0.466,0.002-0.956,0.01-1.427
		c0.076-4.706,0.035-9.573-0.188-14.679c-0.698-16.045-2.677-30.466-5.563-43.343h0c0-0.002-0.002-0.004-0.002-0.005
		c-0.929-4.142-1.955-8.114-3.063-11.933c-0.026-0.091-0.052-0.183-0.079-0.274c-1.096-3.754-2.272-7.348-3.521-10.789
		c-0.047-0.128-0.093-0.256-0.14-0.383c-1.249-3.416-2.563-6.68-3.941-9.789c-0.045-0.101-0.091-0.2-0.136-0.301
		c-1.4-3.139-2.856-6.128-4.366-8.953c-0.001-0.002-0.002-0.004-0.003-0.006h0c-15.399-28.803-35.925-41.329-49.831-38.503
		l-135.02-54.276c0,0,0,0-0.001,0L1196.61,373.163L577.503,498.961c0,0,0,0-0.001-0.001l-181.231,36.826v0v21.494l0.001,0l-0.001,0
		v201.261v25.846l36.367,14.618l-119.89,16.97l-158.569,22.445h-0.001v36.523l20.977,6.186v186.184l-20.977-2.422v36.359
		l70.224,19.918l-20.335,2.794c-1.355,0.226-2.673,0.535-3.971,0.89c-0.393,0.108-0.774,0.241-1.161,0.361
		c-0.913,0.281-1.816,0.587-2.702,0.932c-0.406,0.159-0.807,0.326-1.207,0.498c-0.887,0.381-1.759,0.795-2.616,1.238
		c-0.33,0.171-0.662,0.334-0.987,0.513c-1.097,0.606-2.173,1.258-3.221,1.965c-0.057,0.039-0.117,0.072-0.174,0.111
		c-1.191,0.813-2.349,1.693-3.477,2.632c-0.01,0.008-0.021,0.018-0.031,0.028c-1.07,0.894-2.107,1.854-3.122,2.857
		c-0.148,0.147-0.293,0.3-0.441,0.45c-0.902,0.914-1.782,1.87-2.64,2.868c-0.128,0.149-0.256,0.297-0.384,0.448
		c-28.629,34.009-31.921,114.335-17.252,175.839c0.03,0.123,0.059,0.245,0.088,0.368c2.128,8.866,4.628,17.329,7.481,25.208
		c0.086,0.237,0.17,0.474,0.257,0.71c0.909,2.481,1.852,4.905,2.831,7.26c0.091,0.221,0.185,0.435,0.277,0.654
		c1.994,4.742,4.128,9.208,6.398,13.353c0.134,0.245,0.266,0.496,0.401,0.738c1.085,1.95,2.202,3.818,3.346,5.614
		c0.189,0.297,0.38,0.588,0.571,0.881c1.16,1.778,2.343,3.49,3.562,5.1c0.123,0.162,0.249,0.312,0.373,0.474
		c1.194,1.552,2.415,3.022,3.663,4.405c0.13,0.144,0.255,0.297,0.386,0.439c1.271,1.382,2.574,2.652,3.9,3.848
		c0.248,0.224,0.495,0.448,0.745,0.664c1.315,1.141,2.653,2.193,4.02,3.14c0.232,0.161,0.467,0.306,0.7,0.46
		c1.438,0.955,2.895,1.835,4.387,2.566c1.049,0.384,4.736,1.772,10.773,4.053c1.725,0.651,3.641,1.376,5.743,2.171
		c2.102,0.795,4.389,1.661,6.854,2.594c4.93,1.866,10.574,4.004,16.878,6.392c1.576,0.597,3.193,1.21,4.85,1.838
		c9.945,3.769,21.343,8.09,34.015,12.895c2.111,0.801,4.259,1.615,6.44,2.443c4.363,1.655,8.865,3.363,13.497,5.119
		c2.316,0.879,4.665,1.77,7.047,2.674c4.762,1.807,9.652,3.661,14.663,5.562c2.505,0.95,5.041,1.913,7.607,2.886
		c71.827,27.251,166.739,63.28,266.267,101.07c3.555,1.349,7.115,2.701,10.681,4.055c245.78,93.322,515.527,195.787,533.665,202.677
		c0.42,0.17,0.663,0.251,0.667,0.253c0,0,0.003,0,0.003,0.001l0,0l0,0l825.468-197.039v-26.181l-14.153,3.289l0.182-19.54
		L1955.259,1503.606z"/>
	<path style="fill:#7AB929;" d="M1955.222,1508.244l0.339-36.449l0.053-5.723l0.039-4.254l0.341-36.679l0.091-9.802l0.824-88.733
		l0.288-30.992l11.993-3.35v-26.208l-257.703-67.458c-3.743,1.333-7.57,2.698-11.505,4.101
		c-133.114,47.446-372.085,132.623-475.956,169.646c-31.423,11.2-50.533,18.011-50.533,18.011v0l-949.084-269.186h-0.001
		l-1.925,0.264l-18.409,2.529l-0.001,0.001c-1.355,0.226-2.673,0.534-3.971,0.89c-0.393,0.108-0.774,0.241-1.161,0.361
		c-0.913,0.282-1.816,0.587-2.702,0.932c-0.406,0.159-0.807,0.326-1.207,0.498c-0.887,0.381-1.759,0.794-2.616,1.238
		c-0.33,0.171-0.662,0.334-0.987,0.513c-1.098,0.607-2.174,1.256-3.221,1.965c-0.057,0.039-0.117,0.072-0.174,0.111
		c-1.19,0.814-2.349,1.691-3.477,2.632c-0.01,0.008-0.02,0.018-0.031,0.028c-1.07,0.894-2.108,1.853-3.121,2.857
		c-0.149,0.147-0.294,0.3-0.442,0.45c-0.902,0.914-1.783,1.869-2.639,2.868c-0.128,0.149-0.257,0.297-0.384,0.448
		c-0.952,1.132-1.881,2.306-2.778,3.537c0.046,0.018,0.093,0.036,0.139,0.054c-20.825,28.511-26.755,83.199-21.085,134.416
		c-0.009-0.01-0.022-0.019-0.03-0.028c0.023,0.214,0.065,0.421,0.089,0.636c0.642,5.697,1.454,11.331,2.377,16.895
		c0.209,1.262,0.431,2.504,0.655,3.757c1.003,5.627,2.097,11.19,3.381,16.573c0.029,0.123,0.059,0.245,0.088,0.368
		c2.128,8.866,4.628,17.329,7.481,25.208c0.086,0.237,0.171,0.474,0.257,0.709c0.909,2.482,1.852,4.905,2.831,7.261
		c0.091,0.221,0.185,0.435,0.277,0.654c1.993,4.743,4.129,9.208,6.398,13.353c0.134,0.245,0.266,0.496,0.401,0.738
		c1.085,1.95,2.202,3.818,3.346,5.614c0.189,0.297,0.38,0.588,0.571,0.881c1.16,1.778,2.344,3.489,3.563,5.1
		c0.123,0.162,0.249,0.312,0.373,0.474c1.194,1.552,2.415,3.022,3.664,4.405c0.13,0.144,0.255,0.297,0.386,0.439
		c1.271,1.382,2.575,2.652,3.9,3.848c0.248,0.223,0.495,0.448,0.745,0.665c1.314,1.14,2.653,2.193,4.019,3.14
		c0.232,0.161,0.467,0.306,0.7,0.46c1.438,0.955,2.895,1.835,4.387,2.566c1.049,0.384,4.736,1.772,10.773,4.053
		c1.725,0.651,3.641,1.376,5.743,2.171c2.101,0.795,4.388,1.661,6.853,2.594c2.466,0.933,5.109,1.934,7.925,3
		c2.815,1.066,5.802,2.197,8.953,3.392c1.576,0.597,3.193,1.21,4.851,1.838c6.629,2.512,13.906,5.27,21.774,8.254
		c3.934,1.491,8.016,3.04,12.24,4.641c2.112,0.801,4.259,1.615,6.44,2.443c4.363,1.655,8.865,3.362,13.497,5.119
		c2.316,0.879,4.665,1.77,7.046,2.674c4.762,1.806,9.652,3.661,14.663,5.562c2.505,0.95,5.041,1.913,7.607,2.886
		c12.826,4.866,26.389,10.012,40.582,15.399c9.935,3.77,20.18,7.658,30.698,11.65c10.517,3.991,21.308,8.087,32.336,12.273
		c31.508,11.96,64.951,24.655,99.487,37.767c20.722,7.867,41.837,15.884,63.165,23.982c3.555,1.349,7.115,2.701,10.681,4.055
		c14.262,5.415,28.605,10.861,42.975,16.317c7.185,2.729,14.376,5.459,21.568,8.19c89.894,34.135,179.786,68.274,256.531,97.421
		c8.015,3.044,15.874,6.029,23.587,8.958c7.906,3.003,15.632,5.937,23.189,8.808c3.706,1.408,7.365,2.798,10.982,4.171
		c4.1,1.557,8.141,3.092,12.121,4.603c1.426,0.542,2.865,1.089,4.276,1.624c5.321,2.021,10.511,3.992,15.596,5.924
		c2.334,0.886,4.634,1.76,6.916,2.626c3.518,1.337,6.975,2.65,10.366,3.937c1.946,0.739,3.87,1.47,5.773,2.193
		c2.492,0.946,4.953,1.882,7.369,2.799c6.955,2.642,13.584,5.16,19.878,7.55c1.188,0.452,2.371,0.901,3.535,1.343
		c2.976,1.13,5.857,2.225,8.668,3.292c0.97,0.369,1.95,0.74,2.899,1.101c2.969,1.127,5.804,2.205,8.573,3.256
		c1.722,0.654,3.411,1.296,5.054,1.92c24.367,9.256,39.916,15.163,43.81,16.641c0.419,0.17,0.662,0.251,0.667,0.253
		c0.001,0,0.003,0,0.003,0.001l0,0l0.001,0l825.468-197.039v-26.181l-14.153,3.289l0.18-19.385L1955.222,1508.244z"/>
	<path style="fill:#739B2F;" d="M1143.721,1748.157L1143.721,1748.157c-0.003-0.002-0.005-0.004-0.007-0.005
		c-1.71-1.087-3.361-2.343-4.983-3.675c-0.473-0.389-0.937-0.799-1.402-1.207c-1.227-1.076-2.427-2.223-3.602-3.433
		c-0.403-0.415-0.814-0.806-1.211-1.236c-1.454-1.577-2.869-3.253-4.241-5.028c-0.424-0.549-0.829-1.141-1.245-1.709
		c-0.964-1.311-1.908-2.666-2.829-4.071c-0.521-0.796-1.039-1.596-1.546-2.421c-0.852-1.383-1.677-2.822-2.49-4.283
		c-0.727-1.308-1.44-2.641-2.136-4.008c-0.732-1.434-1.455-2.884-2.153-4.379c-0.601-1.291-1.18-2.617-1.755-3.952
		c-0.435-1.007-0.859-2.031-1.279-3.063c-0.615-1.513-1.23-3.024-1.813-4.586c-0.044-0.117-0.083-0.239-0.127-0.356
		c-1.444-3.897-2.784-7.945-4.029-12.108c-0.128-0.427-0.26-0.85-0.386-1.28c-0.624-2.136-1.226-4.297-1.798-6.493
		c-0.027-0.102-0.052-0.206-0.079-0.309c-1.82-7.024-3.375-14.328-4.653-21.818l0,0c-9.481-55.55-3.843-121.114,19-156.095
		c-313.469-128.542-630.697-237.603-943.658-359.297c-20.825,28.511-26.755,83.199-21.085,134.416
		c-0.009-0.01-0.022-0.019-0.03-0.028c0.023,0.214,0.065,0.421,0.089,0.636c0.642,5.697,1.454,11.331,2.377,16.895
		c0.209,1.262,0.431,2.504,0.655,3.757c1.003,5.627,2.097,11.19,3.381,16.573c0.029,0.123,0.059,0.245,0.088,0.368
		c2.128,8.866,4.628,17.329,7.481,25.208c0.086,0.237,0.171,0.474,0.257,0.709c0.909,2.482,1.852,4.905,2.831,7.261
		c0.091,0.221,0.185,0.435,0.277,0.654c1.993,4.743,4.129,9.208,6.398,13.353c0.134,0.245,0.266,0.496,0.401,0.738
		c1.085,1.95,2.202,3.818,3.346,5.614c0.189,0.297,0.38,0.588,0.571,0.881c1.16,1.778,2.344,3.489,3.563,5.1
		c0.123,0.162,0.249,0.312,0.373,0.474c1.194,1.552,2.415,3.022,3.664,4.405c0.13,0.144,0.255,0.297,0.386,0.439
		c1.271,1.382,2.575,2.652,3.9,3.848c0.248,0.223,0.495,0.448,0.745,0.665c1.314,1.14,2.653,2.193,4.019,3.14
		c0.232,0.161,0.467,0.306,0.7,0.46c1.438,0.955,2.895,1.835,4.387,2.566c1.049,0.384,4.736,1.772,10.773,4.053
		c1.725,0.651,3.641,1.376,5.743,2.171c2.101,0.795,4.388,1.661,6.853,2.594c2.466,0.933,5.109,1.934,7.925,3
		c2.815,1.066,5.802,2.197,8.953,3.392c1.576,0.597,3.193,1.21,4.851,1.838c6.629,2.512,13.906,5.27,21.774,8.254
		c3.934,1.491,8.016,3.04,12.24,4.641c2.112,0.801,4.259,1.615,6.44,2.443c4.363,1.655,8.865,3.362,13.497,5.119
		c2.316,0.879,4.665,1.77,7.046,2.674c4.762,1.806,9.652,3.661,14.663,5.562c2.505,0.95,5.041,1.913,7.607,2.886
		c12.826,4.866,26.389,10.012,40.582,15.399c9.935,3.77,20.18,7.658,30.698,11.65c10.517,3.991,21.308,8.087,32.336,12.273
		c31.508,11.96,64.951,24.655,99.487,37.767c20.722,7.867,41.837,15.884,63.165,23.982c3.555,1.349,7.115,2.701,10.681,4.055
		c14.262,5.415,28.605,10.861,42.975,16.317c7.185,2.729,14.376,5.459,21.568,8.19c89.894,34.135,179.786,68.274,256.531,97.421
		c8.015,3.044,15.874,6.029,23.587,8.958c7.906,3.003,15.632,5.937,23.189,8.808c3.706,1.408,7.365,2.798,10.982,4.171
		c4.1,1.557,8.141,3.092,12.121,4.603c1.426,0.542,2.865,1.089,4.276,1.624c5.321,2.021,10.511,3.992,15.596,5.924
		c2.334,0.886,4.634,1.76,6.916,2.626c3.518,1.337,6.975,2.65,10.366,3.937c1.946,0.739,3.87,1.47,5.773,2.193
		c2.492,0.946,4.953,1.882,7.369,2.799c6.955,2.642,13.584,5.16,19.878,7.55c1.188,0.452,2.371,0.901,3.535,1.343
		c2.976,1.13,5.857,2.225,8.668,3.292c0.97,0.369,1.95,0.74,2.899,1.101c2.969,1.127,5.804,2.205,8.573,3.256
		c1.722,0.654,3.411,1.296,5.054,1.92c24.367,9.256,39.916,15.163,43.81,16.641c0.279,0.106,0.508,0.193,0.667,0.253
		C1143.719,1748.157,1143.721,1748.157,1143.721,1748.157L1143.721,1748.157z"/>
	<path style="fill:#DBDBDB;" d="M1179.198,1512.945c0,0-49.143,12.285-42.508,102.575c6.341,86.277,36.019,94.48,36.019,94.48
		l41.42-9.624l740.907-172.149l0.18-19.385l0.005-0.597l0.339-36.449l0.053-5.723l0.039-4.254l0.341-36.679l0.091-9.802
		l0.824-88.733l0.288-30.992L1179.198,1512.945z"/>
	<path style="fill:#FFFFFF;" d="M1943.904,1374.864c-128.99,31.263-257.309,66.51-384.076,105.781
		c128.888-28.432,257.116-60.709,383.995-97.089l-0.321,34.506c-74.583,16.082-148.96,35.137-221.929,57.284
		c74.404-12.677,148.669-28.342,221.834-47.005l-0.331,35.65c-43.131,7.615-85.84,18.074-127.537,31.451
		c42.888-4.16,85.491-10.896,127.437-20.657l-0.29,31.214c-144.852,27.109-288.42,60.324-430.776,98.468
		c144.809-25.48,288.317-55.953,430.72-92.44l-0.088,9.459l-733.385,172.341c-4.998-7.124-9.048-14.749-12.178-22.683
		c86.842-14.857,172.527-36.301,256.124-64.12c-87.031,14.225-172.946,35.077-256.819,62.312
		c-4.358-11.636-6.739-23.887-7.144-36.177c34-5.059,67.114-15.65,97.767-31.249c-33.724,3.306-66.833,12.019-97.81,25.702
		c0.267-17.381,4.473-34.622,12.597-50.055c93.88-18.7,186.474-43.733,276.979-74.915c-93.206,17.698-185.195,41.658-275.199,71.647
		c9.216-16.1,22.823-30.019,40.82-39.71c115.572-37.908,560.569-168.294,700.031-204.731L1943.904,1374.864z"/>
	<path style="fill:#F2F2F2;" d="M1751.135,942.906c-22.899,7.412-577.642,203.661-577.642,203.661v0.52l-29.771-7.931
		L175.161,881.13v186.184l998.331,283.627c0,0,542.87-193.551,584.667-208.449c4.351-1.777,8.427-4.11,12.307-6.792
		C1803.515,1067.74,1799.819,960.689,1751.135,942.906z"/>
	<path style="fill:#DBDBDB;" d="M1751.135,942.906c-22.899,7.412-577.642,203.661-577.642,203.661v0.52v203.853
		c0,0,542.87-193.551,584.667-208.449c4.351-1.777,8.427-4.11,12.307-6.792C1803.515,1067.74,1799.819,960.689,1751.135,942.906z"/>
	<polygon style="fill:#DBDBDB;" points="416.081,1380.752 879.777,1549.681 879.777,1474.906 416.081,1300.1 	"/>
	<path style="fill:#DBDBDB;" d="M1647.424,1507.106c-104.804,19.305-208.262,45.817-309.381,79.465
		C1442.861,1567.321,1546.29,1540.696,1647.424,1507.106z"/>
	<path style="fill:#ED7004;" d="M806.879,949.443L432.643,799.006l-119.89,16.97c16.668,10.685,34.75,18.703,52.88,23.883
		C515.056,881.188,660.341,920.375,806.879,949.443z"/>
	<path style="fill:#ED7004;" d="M1159.495,938.853l-5.95,1.209l-94.611,19.224l-1.435,0.292l-86.615,17.6
		c23.999,3.3,48.065,6.333,72.259,8.906c211.114,18.707,477.359-22.088,659.079-122.867l-85.574-17.255l-444.064,90.231
		L1159.495,938.853z"/>
	<path style="fill:#C34109;" d="M1173.492,1147.087v-0.52c0,0,554.744-196.25,577.642-203.661
		c48.684,17.783,52.38,124.834,19.331,192.794c66.525-45.99,63.531-216.827-19.331-238.11
		c-22.899,7.412-577.642,203.661-577.642,203.661l-225.988-58.271l-53.537-13.805L154.184,838.421v36.523l20.976,6.186
		l968.56,258.026L1173.492,1147.087z"/>
	<polygon style="fill:#C34109;" points="1173.492,1390.355 1173.492,1350.941 175.161,1067.314 154.184,1064.892 154.184,1101.251 
		224.408,1121.168 224.408,1121.168 	"/>
	<path style="fill:#BD1365;" d="M1778.962,711.159c-0.024-2.644-0.083-5.333-0.203-8.105c-0.699-16.051-2.68-30.469-5.574-43.341
		l0.01-0.002c-0.929-4.145-1.957-8.122-3.066-11.942c-0.025-0.089-0.051-0.179-0.076-0.268c-1.096-3.756-2.275-7.353-3.524-10.796
		c-0.045-0.125-0.091-0.25-0.137-0.375c-1.248-3.417-2.565-6.682-3.943-9.792c-0.044-0.101-0.09-0.2-0.135-0.301
		c-1.399-3.139-2.857-6.129-4.367-8.954c-0.001-0.002-0.001-0.003-0.002-0.005l0,0c-15.4-28.803-35.925-41.329-49.831-38.503
		l-135.019-54.276c-0.001,0-0.001,0-0.001,0l-376.477-151.337L577.509,498.961c0,0,0,0,0-0.001l-181.231,36.826v21.495v37.592
		v163.67v25.846l36.366,14.618l374.236,150.437l100.895,40.558l63.11-12.823l86.615-17.6l1.435-0.292l94.611-19.224l5.95-1.209
		l13.089-2.66l444.064-90.231l10.714-2.177l16.61-3.375c0,0,0,0,0,0l64.14-13.033c0.836-0.176,1.691-0.371,2.563-0.584
		c0.324-0.08,0.662-0.177,0.991-0.262c0.405-0.105,0.813-0.214,1.222-0.324c0.02-0.006,0.039-0.01,0.059-0.016
		c0.134-0.036,0.263-0.067,0.398-0.105c0.385-0.109,0.781-0.236,1.171-0.353c0.527-0.157,1.051-0.309,1.587-0.482
		c0.43-0.139,0.87-0.296,1.305-0.444c0.507-0.173,1.011-0.339,1.526-0.525c0.465-0.169,0.938-0.358,1.408-0.538
		c0.496-0.192,0.989-0.375,1.491-0.579c0.492-0.201,0.99-0.421,1.486-0.634c0.486-0.209,0.97-0.412,1.46-0.635
		c0.514-0.233,1.034-0.487,1.552-0.736c0.479-0.229,0.956-0.453,1.436-0.695c0.529-0.267,1.061-0.554,1.593-0.837
		c0.474-0.252,0.947-0.499,1.422-0.764c0.541-0.302,1.083-0.624,1.625-0.943c0.468-0.275,0.935-0.547,1.403-0.835
		c0.553-0.341,1.105-0.702,1.658-1.062c0.456-0.297,0.912-0.591,1.368-0.901c0.561-0.381,1.12-0.782,1.679-1.184
		c0.448-0.321,0.895-0.641,1.341-0.975c0.565-0.424,1.128-0.868,1.69-1.313c0.435-0.345,0.87-0.689,1.303-1.048
		c0.565-0.467,1.127-0.953,1.688-1.443c0.427-0.373,0.852-0.745,1.276-1.131c0.562-0.512,1.119-1.043,1.674-1.579
		c0.414-0.398,0.826-0.799,1.236-1.211c0.559-0.563,1.114-1.143,1.667-1.732c0.395-0.422,0.789-0.847,1.18-1.282
		c0.552-0.613,1.098-1.242,1.641-1.883c0.383-0.452,0.764-0.91,1.143-1.375c0.54-0.665,1.074-1.345,1.604-2.038
		c0.365-0.477,0.727-0.962,1.087-1.453c0.528-0.722,1.05-1.458,1.567-2.21c0.346-0.504,0.688-1.018,1.029-1.537
		c0.511-0.778,1.017-1.57,1.514-2.379c0.329-0.536,0.654-1.084,0.977-1.635c0.489-0.834,0.973-1.679,1.448-2.547
		c0.309-0.565,0.612-1.144,0.914-1.723c0.468-0.897,0.931-1.804,1.382-2.735c0.289-0.598,0.57-1.21,0.852-1.823
		c0.441-0.957,0.878-1.923,1.3-2.917c0.266-0.623,0.521-1.264,0.778-1.902c0.417-1.034,0.83-2.075,1.226-3.146
		c0.237-0.642,0.463-1.304,0.692-1.96c0.387-1.106,0.771-2.219,1.135-3.365c0.214-0.673,0.415-1.37,0.62-2.058
		c0.353-1.181,0.703-2.367,1.032-3.59c0.185-0.69,0.355-1.405,0.532-2.109c0.318-1.266,0.634-2.535,0.925-3.846
		c0.158-0.714,0.299-1.455,0.449-2.183c0.278-1.349,0.555-2.701,0.803-4.097c0.129-0.725,0.238-1.477,0.359-2.215
		c0.237-1.453,0.474-2.907,0.678-4.411c0.097-0.71,0.173-1.451,0.261-2.172c0.194-1.576,0.388-3.151,0.544-4.781
		c0.067-0.698,0.112-1.429,0.172-2.138c0.144-1.702,0.288-3.405,0.391-5.167c0.037-0.637,0.052-1.305,0.084-1.95
		c0.092-1.882,0.181-3.77,0.224-5.719c0.01-0.466,0.003-0.956,0.01-1.427c0.035-2.167,0.058-4.35,0.031-6.602
		C1778.972,711.14,1778.967,711.149,1778.962,711.159z"/>
	<path style="fill:#660D37;" d="M907.774,990.001c26.396-5.364,51.716-22.379,58.073-78.64c1.459-12.918,1.921-27.902,1.164-45.293
		c-0.965-22.168-3.972-40.528-8.225-55.734c-5.031-17.99-11.81-31.536-19.027-41.735c-11.254-15.904-23.569-23.648-31.985-27.201
		L396.277,535.786v21.495l475.338,187.558c15.434,6.515,63.299,35.119,66.564,110.126c3.405,78.227-12.161,106.846-36.484,106.846
		L396.277,758.542v25.846l36.366,14.618l374.236,150.437L907.774,990.001z"/>
	<path style="fill:#9F1C5A;" d="M1573.094,524.499C1573.093,524.499,1573.093,524.499,1573.094,524.499
		c-23.907,4.949-48.048,10.011-72.366,15.073l31.906,11.786l-0.001,0h0.001l-179.107,33.542l-29.066-10.737
		c-256.666,45.357-521.685,61.793-746.952-75.204c0,0,0,0,0-0.001l-181.231,36.826l511.497,205.613l106.017-21.542l22.516-4.576h0
		l51.381-10.44l10.593-2.152l499.294-101.453l5.522-1.123l50.623-10.286l16.725-3.399l37.666-7.653L1573.094,524.499z"/>
	<path style="fill:#F2F2F2;" d="M938.18,854.964c-3.265-75.007-51.13-103.611-66.564-110.126L396.277,557.281v37.592v163.67
		L901.696,961.81C926.018,961.81,941.585,933.191,938.18,854.964z"/>
	<path style="fill:#86144A;" d="M1778.962,711.159c-0.024-2.644-0.083-5.333-0.203-8.105c-0.699-16.051-2.68-30.469-5.574-43.341
		l0.01-0.002c-0.929-4.145-1.957-8.122-3.066-11.942c-0.025-0.089-0.051-0.179-0.076-0.268c-1.096-3.756-2.275-7.353-3.524-10.796
		c-0.045-0.125-0.091-0.25-0.137-0.375c-1.248-3.417-2.565-6.682-3.943-9.792c-0.044-0.101-0.09-0.2-0.135-0.301
		c-1.399-3.139-2.857-6.129-4.367-8.954c-0.001-0.002-0.001-0.003-0.002-0.005l0,0c-15.4-28.803-35.925-41.329-49.831-38.503
		l-37.666,7.653l-16.725,3.399l-50.623,10.286l-5.522,1.123l-499.294,101.453l-10.593,2.152l-51.381,10.44h0l-22.516,4.576
		l-106.017,21.542c8.416,3.553,20.731,11.298,31.985,27.201c7.217,10.199,13.996,23.744,19.027,41.735
		c4.253,15.205,7.26,33.565,8.225,55.734c0.757,17.391,0.295,32.375-1.164,45.293c-6.357,56.26-31.676,73.276-58.073,78.64
		l63.11-12.823l86.615-17.6l1.435-0.292l94.611-19.224l5.95-1.209l13.089-2.66l444.064-90.231l10.714-2.177l16.61-3.375c0,0,0,0,0,0
		l64.14-13.033c0.836-0.176,1.691-0.371,2.563-0.584c0.324-0.08,0.662-0.177,0.991-0.262c0.405-0.105,0.813-0.214,1.222-0.324
		c0.02-0.006,0.039-0.01,0.059-0.016c0.134-0.036,0.263-0.067,0.398-0.105c0.385-0.109,0.781-0.236,1.171-0.353
		c0.527-0.157,1.051-0.309,1.587-0.482c0.43-0.139,0.87-0.296,1.305-0.444c0.507-0.173,1.011-0.339,1.526-0.525
		c0.465-0.169,0.938-0.358,1.408-0.538c0.496-0.192,0.989-0.375,1.491-0.579c0.492-0.201,0.99-0.421,1.486-0.634
		c0.486-0.209,0.97-0.412,1.46-0.635c0.514-0.233,1.034-0.487,1.552-0.736c0.479-0.229,0.956-0.453,1.436-0.695
		c0.529-0.267,1.061-0.554,1.593-0.837c0.474-0.252,0.947-0.499,1.422-0.764c0.541-0.302,1.083-0.624,1.625-0.943
		c0.468-0.275,0.935-0.547,1.403-0.835c0.553-0.341,1.105-0.702,1.658-1.062c0.456-0.297,0.912-0.591,1.368-0.901
		c0.561-0.381,1.12-0.782,1.679-1.184c0.448-0.321,0.895-0.641,1.341-0.975c0.565-0.424,1.128-0.868,1.69-1.313
		c0.435-0.345,0.87-0.689,1.303-1.048c0.565-0.467,1.127-0.953,1.688-1.443c0.427-0.373,0.852-0.745,1.276-1.131
		c0.562-0.512,1.119-1.043,1.674-1.579c0.414-0.398,0.826-0.799,1.236-1.211c0.559-0.563,1.114-1.143,1.667-1.732
		c0.395-0.422,0.789-0.847,1.18-1.282c0.552-0.613,1.098-1.242,1.641-1.883c0.383-0.452,0.764-0.91,1.143-1.375
		c0.54-0.665,1.074-1.345,1.604-2.038c0.365-0.477,0.727-0.962,1.087-1.453c0.528-0.722,1.05-1.458,1.567-2.21
		c0.346-0.504,0.688-1.018,1.029-1.537c0.511-0.778,1.017-1.57,1.514-2.379c0.329-0.536,0.654-1.084,0.977-1.635
		c0.489-0.834,0.973-1.679,1.448-2.547c0.309-0.565,0.612-1.144,0.914-1.723c0.468-0.897,0.931-1.804,1.382-2.735
		c0.289-0.598,0.57-1.21,0.852-1.823c0.441-0.957,0.878-1.923,1.3-2.917c0.266-0.623,0.521-1.264,0.778-1.902
		c0.417-1.034,0.83-2.075,1.226-3.146c0.237-0.642,0.463-1.304,0.692-1.96c0.387-1.106,0.771-2.219,1.135-3.365
		c0.214-0.673,0.415-1.37,0.62-2.058c0.353-1.181,0.703-2.367,1.032-3.59c0.185-0.69,0.355-1.405,0.532-2.109
		c0.318-1.266,0.634-2.535,0.925-3.846c0.158-0.714,0.299-1.455,0.449-2.183c0.278-1.349,0.555-2.701,0.803-4.097
		c0.129-0.725,0.238-1.477,0.359-2.215c0.237-1.453,0.474-2.907,0.678-4.411c0.097-0.71,0.173-1.451,0.261-2.172
		c0.194-1.576,0.388-3.151,0.544-4.781c0.067-0.698,0.112-1.429,0.172-2.138c0.144-1.702,0.288-3.405,0.391-5.167
		c0.037-0.637,0.052-1.305,0.084-1.95c0.092-1.882,0.181-3.77,0.224-5.719c0.01-0.466,0.003-0.956,0.01-1.427
		c0.035-2.167,0.058-4.35,0.031-6.602C1778.972,711.14,1778.967,711.149,1778.962,711.159z"/>
	<polygon style="fill:#660D37;" points="1532.633,551.359 1500.727,539.573 1176.113,419.657 997.005,453.199 1324.461,574.165 
		1353.526,584.901 1532.633,551.359 1532.632,551.359 	"/>
	<polygon style="fill:#660D37;" points="511.116,546.131 693.941,613.669 722.403,607.463 539.577,539.925 	"/>
	<polygon style="fill:#660D37;" points="559.241,535.264 742.066,602.802 770.527,596.596 587.701,529.058 	"/>
	<g>
		<path style="fill:#F9B233;" d="M1091.265,885.897c0-0.006,0-0.013,0-0.02h-0.001c-0.257-5.303-0.604-10.6-1.103-15.869
			c-2.589-27.267-7.674-54.733-16.136-80.986l0,0c0-0.001,0-0.003-0.001-0.003c-1.412-4.382-2.926-8.723-4.536-13.029
			c-0.623-1.685-1.241-3.371-1.896-5.044c-0.626-1.583-1.27-3.157-1.924-4.727c-1.566-3.79-3.186-7.558-4.936-11.265
			c-1.272-2.694-2.651-5.339-4.035-7.981c-5.835-11.138-12.615-21.803-20.388-31.692h0l-22.516,4.576l-4.852,0.986
			c8.637,9.476,16.029,19.843,22.377,30.824c0.03,0.05,0.054,0.103,0.083,0.153c7.578,13.135,13.607,27.169,18.425,41.648
			c0.003,0.01,0.006,0.018,0.01,0.028c1.661,4.994,3.228,10.021,4.605,15.105c7.16,26.443,12.193,54.376,12.993,82.12l0,0
			c0.136,4.722,0.143,9.438,0.028,14.141c-0.004,0.15,0.003,0.302-0.001,0.452c-0.127,4.832-0.395,9.65-0.824,14.444
			c-1.224,13.676-4.14,27.137-9.136,39.821l1.435-0.292l25.974-5.278c0.858-3.089,1.599-6.207,2.276-9.34
			c0.24-1.111,0.441-2.23,0.66-3.345c0.393-2.007,0.766-4.018,1.092-6.039c0.225-1.392,0.43-2.787,0.625-4.185
			c0.234-1.698,0.443-3.399,0.635-5.105c0.182-1.611,0.365-3.22,0.509-4.837c0.112-1.27,0.192-2.543,0.282-3.816
			c0.535-7.553,0.725-15.153,0.576-22.76c0-0.03,0-0.061-0.001-0.091C1091.504,891.623,1091.403,888.761,1091.265,885.897z"/>
		<path style="fill:#F9B233;" d="M1176.798,884.47c-0.06-2.281-0.141-4.561-0.253-6.84c-0.021-0.434-0.047-0.866-0.07-1.3
			c-0.136-2.559-0.294-5.115-0.49-7.668c-0.169-2.208-0.334-4.418-0.543-6.618c-2.831-29.821-8.569-59.908-18.542-88.351
			c-1.591-4.538-3.28-9.037-5.093-13.482c-1.813-4.461-3.741-8.872-5.794-13.222c-1.56-3.305-3.258-6.547-5.005-9.762
			c-0.965-1.775-1.926-3.552-2.931-5.306c0,0-0.001,0-0.001,0c-6.638-11.589-14.316-22.597-23.132-32.618l-16.663,3.385
			l-10.593,2.152c0.558,1.183,1.294,2.353,2.389,3.465c8.543,8.68,15.873,18.243,22.297,28.369c0.001,0.003,0.003,0.006,0.005,0.008
			c1.929,3.04,3.752,6.143,5.509,9.286c0.2,0.359,0.406,0.715,0.604,1.075c1.643,2.982,3.204,6.01,4.7,9.072
			c0.273,0.56,0.542,1.123,0.81,1.686c1.428,2.989,2.797,6.009,4.092,9.064c0.246,0.581,0.478,1.168,0.719,1.752
			c1.311,3.162,2.578,6.345,3.753,9.568c0.001,0.003,0.002,0.005,0.002,0.008c2.69,7.371,5.096,14.857,7.15,22.442
			c6.363,23.5,10.998,48.176,12.528,72.85c0,0.005,0.001,0.011,0.001,0.016c0.314,5.072,0.463,10.143,0.509,15.204
			c0.014,2.106,0.026,4.211-0.012,6.312c-0.026,1.627-0.068,3.252-0.126,4.875c-0.151,3.977-0.349,7.95-0.702,11.899
			c-0.904,10.102-2.715,20.093-5.607,29.74l7.235-1.47l5.95-1.209l13.089-2.66c0.614-2.881,1.147-5.779,1.62-8.69
			c0.18-1.104,0.312-2.216,0.472-3.324c0.26-1.796,0.525-3.59,0.735-5.395c0.166-1.421,0.289-2.848,0.427-4.273
			c0.141-1.476,0.29-2.949,0.401-4.429c0.124-1.644,0.212-3.291,0.3-4.939c0.066-1.238,0.136-2.474,0.182-3.714
			c0.07-1.848,0.111-3.698,0.14-5.549c0.015-1.002,0.03-2.003,0.034-3.006c0.008-2.052-0.007-4.105-0.045-6.159
			C1176.835,885.966,1176.818,885.218,1176.798,884.47z"/>
		<path style="fill:#F9B233;" d="M1643.918,786.343c-0.2-4.209-0.402-8.417-0.694-12.621l-0.095,0.02
			c-2.044-29.483-6.331-58.796-12.931-87.583l0.049-0.009c-0.754-3.29-1.642-6.546-2.454-9.821
			c-0.958-3.858-1.851-7.732-2.891-11.568c-1.968-7.277-4.078-14.515-6.345-21.702l-0.014,0.003
			c-0.123-0.39-0.221-0.787-0.345-1.176c-4.487-14.119-9.562-28.037-15.1-41.771l-5.522,1.123l-18.73,3.807
			c5.773,13.939,10.935,28.123,15.527,42.488c0.002,0.007,0.005,0.014,0.006,0.021c2.257,7.062,4.365,14.171,6.33,21.318
			c0.01,0.037,0.021,0.074,0.031,0.111c1.967,7.164,3.789,14.367,5.466,21.604c0.001,0.003,0.001,0.007,0.002,0.01
			c6.701,28.921,11.043,58.38,12.957,88.016c0.001,0.008,0.001,0.015,0.002,0.022c0.248,3.852,0.453,7.708,0.623,11.565
			c0.022,0.508,0.041,1.018,0.062,1.526c0.142,3.447,0.254,6.895,0.331,10.346c0.031,1.485,0.042,2.97,0.061,4.455
			c0.037,2.626,0.076,5.252,0.074,7.878c-0.008,4.305-0.052,8.611-0.165,12.916c-0.157,6.035-0.416,12.065-0.775,18.089l2.623-0.533
			l5.36-1.089l16.61-3.375c0,0,0,0,0,0c0.351-7.328,0.503-14.664,0.565-22.001c0.02-2.134,0.025-4.266,0.021-6.399
			c-0.018-6.384-0.122-12.766-0.354-19.147C1644.127,790.688,1644.021,788.516,1643.918,786.343z"/>
		<path style="fill:#F9B233;" d="M1718.353,774.997c-0.058-1.57-0.172-3.136-0.243-4.704c-0.178-3.89-0.347-7.779-0.604-11.665
			l-0.109,0.022c-1.918-29.048-5.953-57.951-12.292-86.346l0.016-0.003c-1.636-7.329-3.427-14.622-5.36-21.875
			c-1.011-3.805-2.17-7.565-3.262-11.346c-0.955-3.302-1.834-6.627-2.85-9.911l-0.05,0.009c-0.436-1.412-0.799-2.848-1.247-4.257
			c-4.297-13.519-9.128-26.855-14.388-40.021l-7.517,1.527l-16.725,3.399c5.892,14.369,11.126,28.997,15.766,43.811
			c4.449,14.206,8.308,28.591,11.583,43.109c0,0,0,0.001,0,0.002v0c6.435,28.529,10.588,57.566,12.372,86.769
			c0,0.001,0,0.002,0,0.003c0.46,7.523,0.755,15.058,0.909,22.596c0.014,0.696,0.018,1.392,0.029,2.088
			c0.122,7.382,0.119,14.767-0.073,22.151c-0.174,6.678-0.501,13.348-0.922,20.011l14.727-2.992c1.531-0.321,3.129-0.711,4.777-1.17
			c0.02-0.006,0.039-0.01,0.059-0.016c1.658-0.463,3.369-0.998,5.115-1.61c0.369-7.39,0.536-14.788,0.612-22.189
			c0.022-2.024,0.036-4.046,0.036-6.071C1718.709,789.212,1718.621,782.102,1718.353,774.997z"/>
	</g>
	<path style="fill:#F07E31;" d="M1087.184,944.668c0.24-1.111,0.441-2.23,0.66-3.345c0.393-2.007,0.766-4.018,1.092-6.039
		c0.225-1.392,0.43-2.787,0.625-4.185c0.234-1.698,0.443-3.399,0.635-5.105c0.182-1.611,0.365-3.22,0.509-4.837
		c0.112-1.27,0.192-2.543,0.282-3.816c0.535-7.553,0.725-15.153,0.576-22.76c0-0.03,0-0.061-0.001-0.091
		c-0.056-2.866-0.157-5.728-0.296-8.592c0-0.006,0-0.013,0-0.02h-0.001l-23.832,4.842l0,0c0.136,4.722,0.143,9.438,0.028,14.141
		c-0.004,0.15,0.003,0.302-0.001,0.452c-0.127,4.832-0.395,9.65-0.824,14.444c-1.224,13.676-4.14,27.137-9.136,39.821l1.435-0.292
		l25.974-5.278C1085.765,950.919,1086.507,947.801,1087.184,944.668z"/>
	<path style="fill:#F07E31;" d="M1152.249,873.485c0,0.005,0.001,0.012,0.001,0.017c0.314,5.072,0.463,10.143,0.509,15.204
		c0.014,2.106,0.026,4.211-0.012,6.312c-0.026,1.627-0.068,3.252-0.126,4.875c-0.151,3.977-0.349,7.95-0.702,11.899
		c-0.904,10.102-2.715,20.093-5.607,29.74l7.235-1.47l5.95-1.209l13.089-2.66c0.614-2.881,1.147-5.779,1.62-8.69
		c0.18-1.104,0.312-2.216,0.472-3.324c0.26-1.796,0.525-3.59,0.735-5.395c0.166-1.421,0.289-2.848,0.427-4.273
		c0.141-1.476,0.29-2.949,0.401-4.429c0.124-1.644,0.212-3.291,0.3-4.939c0.066-1.238,0.136-2.474,0.182-3.714
		c0.07-1.848,0.111-3.698,0.14-5.549c0.015-1.002,0.03-2.003,0.034-3.006c0.008-2.052-0.007-4.105-0.045-6.159
		c-0.015-0.749-0.032-1.497-0.052-2.246c-0.06-2.281-0.141-4.561-0.253-6.84c-0.021-0.434-0.047-0.866-0.07-1.3
		c-0.137-2.558-0.295-5.116-0.49-7.668L1152.249,873.485z"/>
	<path style="fill:#F07E31;" d="M1644.559,812.01c-0.018-6.384-0.122-12.766-0.354-19.147c-0.078-2.175-0.184-4.346-0.287-6.52
		c-0.2-4.209-0.402-8.417-0.694-12.621l-0.095,0.02l-23.962,4.869c0,0.008,0,0.015,0.002,0.022
		c0.248,3.852,0.453,7.708,0.623,11.565c0.022,0.508,0.041,1.018,0.062,1.526c0.142,3.447,0.254,6.895,0.331,10.346
		c0.031,1.485,0.042,2.97,0.061,4.455c0.037,2.626,0.076,5.252,0.074,7.878c-0.008,4.305-0.052,8.611-0.165,12.916
		c-0.157,6.035-0.416,12.065-0.775,18.089l2.623-0.533l5.36-1.089l16.61-3.375c0,0,0,0,0,0c0.351-7.328,0.503-14.664,0.565-22.001
		C1644.558,816.275,1644.563,814.143,1644.559,812.01z"/>
	<path style="fill:#F07E31;" d="M1718.677,802.392c0.022-2.024,0.036-4.046,0.036-6.071c-0.003-7.109-0.091-14.219-0.359-21.323
		c-0.058-1.57-0.172-3.136-0.243-4.704c-0.178-3.89-0.347-7.779-0.604-11.665l-0.109,0.022l-23.953,4.868c0,0.001,0,0.002,0,0.003
		c0.46,7.523,0.755,15.058,0.909,22.596c0.014,0.696,0.018,1.392,0.029,2.088c0.122,7.382,0.119,14.767-0.073,22.151
		c-0.174,6.678-0.501,13.348-0.922,20.011l14.727-2.992c1.531-0.321,3.129-0.711,4.777-1.17c0.02-0.006,0.039-0.01,0.059-0.016
		c1.658-0.463,3.369-0.998,5.115-1.61C1718.433,817.191,1718.6,809.792,1718.677,802.392z"/>
	<path style="fill:#FFD332;" d="M1074.025,789.022L1074.025,789.022c0-0.001,0-0.003-0.001-0.003
		c-1.412-4.382-2.926-8.723-4.536-13.029c-0.623-1.685-1.241-3.371-1.896-5.044c-0.626-1.583-1.27-3.157-1.924-4.727
		c-1.566-3.79-3.186-7.558-4.936-11.265c-1.272-2.694-2.651-5.339-4.035-7.981l-25.379,4.694c0.029,0.05,0.053,0.103,0.082,0.153
		c7.578,13.135,13.607,27.169,18.425,41.648c0.003,0.01,0.007,0.018,0.01,0.028L1074.025,789.022z"/>
	<path style="fill:#FFD332;" d="M1118.494,747.044c1.643,2.982,3.204,6.01,4.7,9.072c0.273,0.56,0.542,1.123,0.81,1.686
		c1.428,2.989,2.797,6.009,4.092,9.064c0.246,0.581,0.478,1.168,0.719,1.752c1.311,3.162,2.578,6.345,3.753,9.568
		c0.001,0.003,0.002,0.005,0.003,0.007l24.329-4.5c-1.591-4.537-3.286-9.035-5.093-13.482c-1.813-4.461-3.741-8.872-5.794-13.222
		c-1.56-3.305-3.258-6.547-5.005-9.762c-0.965-1.775-1.926-3.552-2.931-5.306c0,0-0.001,0-0.001,0l0,0l-25.701,4.754
		c0.001,0.003,0.003,0.005,0.005,0.008c1.929,3.04,3.752,6.143,5.509,9.286C1118.09,746.329,1118.296,746.684,1118.494,747.044z"/>
	<path style="fill:#FFD332;" d="M1600.741,668.981c1.967,7.164,3.789,14.367,5.466,21.604c0,0.003,0.002,0.006,0.003,0.01
		l23.988-4.436l0.049-0.009c-0.754-3.29-1.642-6.546-2.454-9.821c-0.958-3.858-1.851-7.732-2.891-11.568
		c-1.968-7.277-4.078-14.515-6.345-21.702l-0.014,0.003l-24.17,4.47c0.002,0.007,0.004,0.014,0.006,0.021
		c2.257,7.062,4.365,14.171,6.33,21.318C1600.72,668.906,1600.731,668.943,1600.741,668.981z"/>
	<path style="fill:#FFD332;" d="M1681.07,676.747c0,0,0,0.001,0,0.002v0l0,0l24.034-4.445l0.016-0.003
		c-1.636-7.329-3.427-14.622-5.36-21.875c-1.011-3.805-2.17-7.565-3.262-11.346c-0.955-3.302-1.834-6.627-2.85-9.911l-0.05,0.009
		l-24.111,4.459C1673.937,647.844,1677.796,662.229,1681.07,676.747z"/>
	<path style="fill:#A80F59;" d="M1624.902,664.76c1.04,3.836,1.932,7.71,2.891,11.568c0.812,3.276,1.7,6.532,2.454,9.821
		l-0.049,0.009l50.873-9.409c0-0.001,0-0.002,0-0.002c-3.274-14.518-7.134-28.903-11.583-43.109l-50.944,9.422l0.014-0.003
		C1620.825,650.245,1622.934,657.483,1624.902,664.76z"/>
	<path style="fill:#A80F59;" d="M1146.014,746.99c2.053,4.35,3.98,8.761,5.794,13.222c1.813,4.445,3.502,8.944,5.093,13.482
		l449.309-83.099c0-0.003-0.001-0.006-0.002-0.01c-1.677-7.237-3.499-14.44-5.466-21.604c-0.01-0.037-0.021-0.074-0.031-0.111
		c-1.965-7.147-4.073-14.256-6.33-21.318c-0.002-0.007-0.005-0.014-0.006-0.021l-456.296,84.391
		c1.005,1.754,1.966,3.531,2.931,5.306C1142.755,740.443,1144.454,743.684,1146.014,746.99z"/>
	<path style="fill:#A80F59;" d="M1693.649,629.17c1.015,3.284,1.895,6.608,2.85,9.911c1.092,3.781,2.251,7.541,3.262,11.346
		c1.934,7.253,3.724,14.546,5.36,21.875l68.063-12.588l0.01-0.002c-0.929-4.145-1.957-8.122-3.066-11.942
		c-0.025-0.089-0.051-0.179-0.076-0.268c-1.096-3.756-2.275-7.353-3.524-10.796c-0.045-0.125-0.091-0.25-0.137-0.375
		c-1.248-3.417-2.565-6.682-3.943-9.792c-0.044-0.101-0.09-0.2-0.135-0.301c-1.399-3.139-2.857-6.129-4.367-8.954
		c-0.001-0.002-0.001-0.003-0.002-0.005l0,0l-64.346,11.901L1693.649,629.17z"/>
	<path style="fill:#A80F59;" d="M1049.824,793.467c-4.818-14.479-10.847-28.513-18.425-41.648c-0.029-0.05-0.053-0.102-0.083-0.153
		L939.759,768.6c7.217,10.199,13.996,23.744,19.027,41.735l91.048-16.839C1049.831,793.486,1049.827,793.477,1049.824,793.467z"/>
	<path style="fill:#A80F59;" d="M1065.667,766.219c0.655,1.57,1.298,3.145,1.924,4.727c0.655,1.673,1.273,3.359,1.896,5.044
		c1.61,4.306,3.124,8.647,4.536,13.029c0,0,0,0.001,0.001,0.003l58.547-10.828c0-0.003-0.001-0.005-0.002-0.008
		c-1.175-3.223-2.443-6.406-3.753-9.568c-0.241-0.584-0.473-1.171-0.719-1.752c-1.295-3.055-2.665-6.075-4.092-9.064
		c-0.268-0.563-0.537-1.125-0.81-1.686c-1.496-3.062-3.057-6.09-4.7-9.072c-0.198-0.36-0.404-0.716-0.604-1.075
		c-1.757-3.143-3.581-6.246-5.509-9.286c-0.002-0.003-0.004-0.006-0.005-0.008l-55.679,10.298c1.385,2.642,2.764,5.287,4.035,7.981
		C1062.481,758.661,1064.101,762.429,1065.667,766.219z"/>
	<path style="fill:#721544;" d="M1619.38,845.407c0.359-6.024,0.618-12.054,0.775-18.089c0.112-4.305,0.157-8.611,0.165-12.916
		c0.002-2.627-0.037-5.253-0.074-7.878c-0.019-1.485-0.031-2.97-0.061-4.455c-0.077-3.45-0.189-6.899-0.331-10.346
		c-0.02-0.508-0.04-1.018-0.062-1.526c-0.17-3.857-0.374-7.712-0.623-11.565c-0.001-0.007-0.001-0.014-0.002-0.022l-443.181,90.052
		c0.195,2.553,0.353,5.109,0.49,7.668c0.023,0.434,0.049,0.866,0.07,1.3c0.112,2.279,0.193,4.559,0.253,6.84
		c0.02,0.748,0.037,1.497,0.052,2.246c0.038,2.054,0.053,4.107,0.045,6.159c-0.004,1.002-0.019,2.004-0.034,3.006
		c-0.028,1.852-0.069,3.701-0.14,5.549c-0.046,1.24-0.116,2.476-0.182,3.714c-0.088,1.648-0.176,3.295-0.3,4.939
		c-0.111,1.48-0.26,2.954-0.401,4.429c-0.137,1.425-0.26,2.852-0.427,4.273c-0.21,1.805-0.475,3.599-0.735,5.395
		c-0.16,1.108-0.293,2.22-0.472,3.324c-0.473,2.911-1.006,5.81-1.62,8.69l444.064-90.231l10.714-2.177l-5.36,1.089L1619.38,845.407z
		"/>
	<path style="fill:#721544;" d="M1721.173,757.884l-3.668,0.745c0.257,3.885,0.426,7.775,0.604,11.665
		c0.072,1.568,0.185,3.135,0.243,4.704c0.268,7.104,0.356,14.214,0.359,21.323c0,2.025-0.014,4.047-0.036,6.071
		c-0.076,7.401-0.243,14.799-0.612,22.189c-1.747,0.612-3.457,1.148-5.115,1.61c0.134-0.036,0.263-0.067,0.398-0.105
		c0.385-0.109,0.781-0.236,1.171-0.353c0.527-0.157,1.051-0.309,1.587-0.482c0.43-0.139,0.87-0.296,1.305-0.444
		c0.507-0.173,1.011-0.339,1.526-0.525c0.465-0.169,0.938-0.358,1.408-0.538c0.496-0.192,0.989-0.375,1.491-0.579
		c0.492-0.201,0.99-0.421,1.486-0.634c0.486-0.209,0.97-0.412,1.46-0.635c0.514-0.233,1.034-0.487,1.552-0.736
		c0.479-0.229,0.956-0.453,1.436-0.695c0.529-0.267,1.061-0.554,1.593-0.837c0.474-0.252,0.947-0.499,1.422-0.764
		c0.541-0.302,1.083-0.624,1.625-0.943c0.468-0.275,0.935-0.547,1.403-0.835c0.553-0.341,1.105-0.702,1.658-1.062
		c0.456-0.297,0.912-0.591,1.368-0.901c0.561-0.381,1.12-0.782,1.679-1.184c0.448-0.321,0.895-0.641,1.341-0.975
		c0.565-0.424,1.128-0.868,1.69-1.313c0.435-0.345,0.87-0.689,1.303-1.048c0.565-0.467,1.127-0.953,1.688-1.443
		c0.427-0.373,0.852-0.745,1.276-1.131c0.562-0.512,1.119-1.043,1.674-1.579c0.414-0.398,0.826-0.799,1.236-1.211
		c0.559-0.563,1.114-1.143,1.667-1.732c0.395-0.422,0.789-0.847,1.18-1.282c0.552-0.613,1.098-1.242,1.641-1.883
		c0.383-0.452,0.764-0.91,1.143-1.375c0.54-0.665,1.074-1.345,1.604-2.038c0.365-0.477,0.727-0.962,1.087-1.453
		c0.528-0.722,1.05-1.458,1.567-2.21c0.346-0.504,0.688-1.018,1.029-1.537c0.511-0.778,1.017-1.57,1.514-2.379
		c0.329-0.536,0.654-1.084,0.977-1.635c0.489-0.834,0.973-1.679,1.448-2.547c0.309-0.565,0.612-1.144,0.914-1.723
		c0.468-0.897,0.931-1.804,1.382-2.735c0.289-0.598,0.57-1.21,0.852-1.823c0.441-0.957,0.878-1.923,1.3-2.917
		c0.266-0.623,0.521-1.264,0.778-1.902c0.417-1.034,0.83-2.075,1.226-3.146c0.237-0.642,0.463-1.304,0.692-1.96
		c0.387-1.106,0.771-2.219,1.135-3.365c0.214-0.673,0.415-1.37,0.62-2.058c0.353-1.181,0.703-2.367,1.032-3.59
		c0.185-0.69,0.355-1.405,0.532-2.109c0.318-1.266,0.634-2.535,0.925-3.846c0.158-0.714,0.299-1.455,0.449-2.183
		c0.278-1.349,0.555-2.701,0.803-4.097c0.129-0.725,0.238-1.477,0.359-2.215c0.237-1.453,0.474-2.907,0.678-4.411
		c0.097-0.71,0.173-1.451,0.261-2.172c0.194-1.576,0.388-3.151,0.544-4.781c0.067-0.698,0.112-1.429,0.172-2.138
		c0.144-1.702,0.288-3.405,0.391-5.167c0.037-0.637,0.052-1.305,0.084-1.95c0.092-1.882,0.181-3.77,0.224-5.719
		c0.01-0.466,0.003-0.956,0.01-1.427c0.035-2.167,0.058-4.35,0.031-6.602c-0.005,0.009-0.01,0.018-0.015,0.028
		C1763.7,742.717,1738.387,754.271,1721.173,757.884z"/>
	<path style="fill:#721544;" d="M1694.308,810.357c0.192-7.384,0.195-14.769,0.073-22.151c-0.011-0.696-0.015-1.392-0.029-2.088
		c-0.154-7.538-0.449-15.073-0.909-22.596c0-0.001,0-0.003,0-0.003l-50.219,10.203c0.292,4.204,0.494,8.412,0.694,12.621
		c0.103,2.173,0.209,4.345,0.287,6.52c0.231,6.381,0.336,12.763,0.354,19.147c0.005,2.134-0.001,4.265-0.021,6.399
		c-0.062,7.337-0.214,14.673-0.565,22.001l64.14-13.033l-14.727,2.992C1693.807,823.705,1694.134,817.035,1694.308,810.357z"/>
	<path style="fill:#721544;" d="M1151.918,911.792c0.353-3.949,0.551-7.922,0.702-11.899c0.058-1.623,0.1-3.248,0.126-4.875
		c0.038-2.101,0.026-4.206,0.012-6.312c-0.046-5.061-0.194-10.132-0.509-15.204c0-0.005,0-0.011-0.001-0.016l-60.985,12.392h0.001
		c0,0.007,0,0.014,0,0.02c0.139,2.864,0.24,5.726,0.296,8.592c0,0.03,0,0.061,0.001,0.091c0.146,7.608-0.032,15.206-0.576,22.76
		c-0.09,1.273-0.17,2.546-0.282,3.816c-0.145,1.617-0.328,3.226-0.509,4.837c-0.191,1.706-0.401,3.407-0.635,5.105
		c-0.195,1.398-0.399,2.793-0.625,4.185c-0.325,2.021-0.698,4.032-1.092,6.039c-0.219,1.115-0.419,2.234-0.66,3.345
		c-0.677,3.133-1.419,6.251-2.276,9.34l-25.974,5.278l94.611-19.224l-7.235,1.47
		C1149.203,931.885,1151.014,921.894,1151.918,911.792z"/>
	<path style="fill:#721544;" d="M1066.635,919.757c0.429-4.794,0.697-9.612,0.824-14.444c0.004-0.15-0.003-0.302,0.001-0.452
		c0.115-4.703,0.108-9.419-0.028-14.141l-101.585,20.642c-6.357,56.26-31.676,73.276-58.073,78.64l63.11-12.823l86.615-17.6
		C1062.495,946.894,1065.411,933.433,1066.635,919.757z"/>
	<path style="fill:#DBDBDB;" d="M938.18,854.964c-3.265-75.007-51.13-103.611-66.564-110.126L396.277,557.281v37.592
		l430.168,169.735c15.434,6.516,63.299,35.119,66.565,110.126c1.636,37.601-1.12,63.712-7.115,80.722L396.277,758.542
		L901.696,961.81C926.018,961.81,941.585,933.191,938.18,854.964z"/>
	<path style="fill:#4C0525;" d="M1324.476,574.17l29.05,10.731l179.107-33.542h-0.001l-31.907-11.787
		C1442.819,551.625,1383.875,563.669,1324.476,574.17z"/>
	<path style="fill:#BDC7C7;" d="M1211.809,1179.555c95.724-34.129,384.63-144.443,509.765-165.725
		c48.497-8.248,45.011,124.552,48.891,121.87c33.049-67.96,29.353-175.011-19.331-192.794
		c-22.899,7.412-577.642,203.661-577.642,203.661v0.52v203.853C1173.492,1350.941,1187.579,1188.194,1211.809,1179.555z"/>
	<polygon style="fill:#DBDBDB;" points="1128.417,1205.036 1173.492,1350.941 1173.492,1147.087 1143.721,1139.156 175.161,881.13 
		175.161,1067.314 204.072,924.747 	"/>
	<path style="fill:#3F6837;" d="M1172.709,1710c0,0-29.678-8.202-36.019-94.48c-6.635-90.29,42.508-102.575,42.508-102.575
		l777.998-217.332l11.993-3.35v-26.208l-506.121,131.572c0,0,0.001,0,0.001,0l-319.349,83.018c-1.855,0.742-3.633,1.668-5.377,2.67
		c-0.38,0.22-0.766,0.426-1.141,0.658c-1.53,0.94-3.007,1.999-4.45,3.132c-0.595,0.471-1.18,0.963-1.76,1.466
		c-0.961,0.827-1.894,1.715-2.815,2.626c-1.084,1.079-2.142,2.211-3.171,3.402c-0.425,0.489-0.844,0.988-1.259,1.495
		c-1.668,2.049-3.272,4.222-4.79,6.548h-0.001c-22.843,34.981-28.48,100.545-19,156.095l0,0c1.279,7.49,2.833,14.795,4.653,21.818
		c0.027,0.103,0.052,0.207,0.079,0.309c0.572,2.195,1.174,4.357,1.798,6.493c0.126,0.43,0.258,0.853,0.386,1.28
		c1.245,4.163,2.584,8.211,4.029,12.108c0.043,0.117,0.083,0.239,0.127,0.356c0.582,1.562,1.198,3.073,1.813,4.586
		c0.42,1.032,0.845,2.056,1.279,3.063c0.574,1.335,1.154,2.661,1.755,3.952c0.698,1.496,1.421,2.946,2.153,4.379
		c0.696,1.368,1.408,2.7,2.136,4.008c0.813,1.46,1.638,2.9,2.49,4.283c0.507,0.825,1.025,1.625,1.546,2.421
		c0.921,1.405,1.865,2.76,2.829,4.071c0.416,0.568,0.821,1.16,1.245,1.709c1.372,1.774,2.786,3.45,4.241,5.028
		c0.397,0.43,0.808,0.821,1.211,1.236c1.175,1.21,2.375,2.357,3.602,3.433c0.465,0.408,0.929,0.818,1.402,1.207
		c1.623,1.331,3.274,2.588,4.983,3.675c0.003,0.001,0.004,0.003,0.007,0.005h0l0.001,0l825.468-197.039v-26.181l-14.153,3.289
		l-740.907,172.149L1172.709,1710z"/>
	<path style="fill:#B3BE11;" d="M1118.958,1502.641c1.519-2.326,3.122-4.499,4.79-6.548c0.415-0.507,0.834-1.006,1.259-1.495
		c1.028-1.191,2.087-2.322,3.171-3.402c0.921-0.911,1.854-1.799,2.815-2.626c0.58-0.503,1.165-0.995,1.76-1.466
		c1.443-1.133,2.92-2.193,4.45-3.132c0.375-0.232,0.761-0.438,1.141-0.658c1.744-1.002,3.522-1.927,5.377-2.67l-939.649-356.683
		c-1.355,0.226-2.673,0.534-3.971,0.89c-0.393,0.108-0.774,0.241-1.161,0.361c-0.913,0.282-1.816,0.587-2.702,0.932
		c-0.406,0.159-0.807,0.326-1.207,0.498c-0.887,0.381-1.759,0.794-2.616,1.238c-0.33,0.171-0.662,0.334-0.987,0.513
		c-1.098,0.607-2.174,1.256-3.221,1.965c-0.057,0.039-0.117,0.072-0.174,0.111c-1.19,0.814-2.349,1.691-3.477,2.632
		c-0.01,0.008-0.02,0.018-0.031,0.028c-1.07,0.894-2.108,1.853-3.121,2.857c-0.149,0.147-0.294,0.3-0.442,0.45
		c-0.902,0.914-1.783,1.869-2.639,2.868c-0.128,0.149-0.257,0.297-0.384,0.448c-0.952,1.132-1.881,2.306-2.778,3.537
		c0.046,0.018,0.093,0.036,0.139,0.054C488.261,1265.038,805.489,1374.099,1118.958,1502.641L1118.958,1502.641z"/>
	<path style="fill:#B7CD00;" d="M1969.189,1266.054l-257.703-67.458c-3.743,1.333-7.57,2.698-11.505,4.101L1969.189,1266.054z"/>
	<path style="fill:#95C11F;" d="M1224.026,1372.344c79.093,11.899,158.929,20.189,239.043,25.283l506.121-131.572l-269.208-63.357
		C1566.868,1250.143,1327.897,1335.32,1224.026,1372.344z"/>
	<path style="fill:#578B35;" d="M1143.714,1748.152c-1.71-1.087-3.361-2.343-4.983-3.675c-0.473-0.389-0.937-0.799-1.402-1.207
		c-1.227-1.076-2.427-2.223-3.602-3.433c-0.403-0.415-0.814-0.806-1.211-1.236c-1.454-1.577-2.869-3.253-4.241-5.028
		c-0.424-0.549-0.829-1.141-1.245-1.709c-0.964-1.311-1.908-2.666-2.829-4.071c-0.521-0.796-1.039-1.596-1.546-2.421
		c-0.852-1.383-1.677-2.822-2.49-4.283c-0.727-1.308-1.44-2.641-2.136-4.008c-0.732-1.434-1.455-2.884-2.153-4.379
		c-0.601-1.291-1.18-2.617-1.755-3.952c-0.435-1.007-0.859-2.031-1.279-3.063c-0.615-1.513-1.23-3.024-1.813-4.586
		c-0.044-0.117-0.083-0.239-0.127-0.356c-1.444-3.897-2.784-7.945-4.029-12.108c-0.128-0.427-0.26-0.85-0.386-1.28
		c-0.624-2.136-1.226-4.297-1.798-6.493c-0.027-0.102-0.052-0.206-0.079-0.309c-1.82-7.024-3.375-14.328-4.653-21.818l0,0
		c-187.921-77.301-884.177-318.009-945.743-380.975c-0.009-0.01-0.022-0.019-0.03-0.028c0.023,0.214,0.065,0.421,0.089,0.636
		c0.642,5.697,1.454,11.331,2.377,16.895c0.209,1.262,0.431,2.504,0.655,3.757c1.003,5.626,2.098,11.192,3.381,16.573
		c0.029,0.123,0.059,0.245,0.088,0.368c2.127,8.866,4.629,17.329,7.481,25.208c0.086,0.237,0.171,0.474,0.257,0.709
		c0.909,2.482,1.852,4.905,2.831,7.261c0.091,0.221,0.185,0.435,0.277,0.654c1.993,4.743,4.129,9.208,6.398,13.353
		c0.134,0.245,0.266,0.496,0.401,0.738c1.085,1.95,2.202,3.818,3.346,5.614c0.189,0.297,0.38,0.588,0.571,0.881
		c1.16,1.778,2.344,3.489,3.563,5.1c0.123,0.162,0.249,0.312,0.373,0.474c1.194,1.552,2.415,3.022,3.664,4.405
		c0.13,0.144,0.255,0.297,0.386,0.439c1.271,1.382,2.575,2.652,3.9,3.848c0.248,0.223,0.495,0.448,0.745,0.665
		c1.314,1.14,2.653,2.193,4.019,3.14c0.232,0.161,0.467,0.306,0.7,0.46c1.438,0.955,2.895,1.835,4.387,2.566
		c1.049,0.384,4.736,1.772,10.773,4.053c1.725,0.651,3.641,1.376,5.743,2.171c2.101,0.795,4.388,1.661,6.853,2.594
		c2.466,0.933,5.109,1.934,7.925,3c2.815,1.066,5.802,2.197,8.953,3.392c1.576,0.597,3.193,1.21,4.851,1.838
		c6.63,2.512,13.906,5.27,21.774,8.254c3.934,1.491,8.016,3.04,12.24,4.641c2.112,0.801,4.259,1.615,6.44,2.443
		c4.363,1.655,8.865,3.362,13.497,5.119c2.316,0.879,4.665,1.77,7.046,2.674c4.762,1.806,9.652,3.661,14.663,5.562
		c2.505,0.95,5.041,1.913,7.607,2.886c12.826,4.866,26.389,10.012,40.582,15.399c9.935,3.77,20.18,7.658,30.698,11.65
		c10.517,3.991,21.308,8.087,32.336,12.273c31.508,11.96,64.951,24.655,99.487,37.767c20.722,7.867,41.837,15.884,63.165,23.982
		c3.555,1.349,7.115,2.701,10.681,4.055c14.262,5.415,28.605,10.861,42.975,16.317c7.185,2.729,14.376,5.459,21.568,8.19
		c89.894,34.135,179.786,68.274,256.531,97.421c8.015,3.044,15.874,6.029,23.587,8.958c7.906,3.003,15.632,5.937,23.189,8.808
		c3.706,1.408,7.365,2.798,10.982,4.171c4.1,1.557,8.141,3.092,12.121,4.603c1.426,0.542,2.865,1.089,4.276,1.624
		c5.321,2.021,10.511,3.992,15.596,5.924c2.334,0.886,4.634,1.76,6.916,2.626c3.518,1.337,6.975,2.65,10.366,3.937
		c1.946,0.739,3.87,1.47,5.773,2.193c2.492,0.946,4.953,1.882,7.369,2.799c6.955,2.642,13.584,5.16,19.878,7.55
		c1.188,0.452,2.371,0.901,3.535,1.343c2.976,1.13,5.857,2.225,8.668,3.292c0.97,0.369,1.95,0.74,2.899,1.101
		c34.197,12.99,55.347,21.023,58.106,22.071C1143.718,1748.155,1143.716,1748.153,1143.714,1748.152z"/>
</g>
</svg>
